<?xml version="1.0" encoding="UTF-8" standalone="no"?>
<!-- Created with Inkscape (http://www.inkscape.org/) -->

<svg
   xmlns:dc="http://purl.org/dc/elements/1.1/"
   xmlns:cc="http://creativecommons.org/ns#"
   xmlns:rdf="http://www.w3.org/1999/02/22-rdf-syntax-ns#"
   xmlns:svg="http://www.w3.org/2000/svg"
   xmlns="http://www.w3.org/2000/svg"
   xmlns:sodipodi="http://sodipodi.sourceforge.net/DTD/sodipodi-0.dtd"
   xmlns:inkscape="http://www.inkscape.org/namespaces/inkscape"
   version="1.1"
   id="svg45"
   width="83.145317"
   height="118.35879"
   viewBox="0 0 83.145317 118.35879"
   sodipodi:docname="logo.svg"
   inkscape:version="0.92.4 5da689c313, 2019-01-14">
  <metadata
     id="metadata51">
    <rdf:RDF>
      <cc:Work
         rdf:about="">
        <dc:format>image/svg+xml</dc:format>
        <dc:type
           rdf:resource="http://purl.org/dc/dcmitype/StillImage" />
        <dc:title></dc:title>
      </cc:Work>
    </rdf:RDF>
  </metadata>
  <defs
     id="defs49" />
  <sodipodi:namedview
     pagecolor="#ffffff"
     bordercolor="#666666"
     borderopacity="1"
     objecttolerance="10"
     gridtolerance="10"
     guidetolerance="10"
     inkscape:pageopacity="0"
     inkscape:pageshadow="2"
     inkscape:window-width="941"
     inkscape:window-height="1056"
     id="namedview47"
     showgrid="false"
     inkscape:zoom="4.4999998"
     inkscape:cx="45.273482"
     inkscape:cy="54.007073"
     inkscape:window-x="965"
     inkscape:window-y="10"
     inkscape:window-maximized="1"
     inkscape:current-layer="svg45" />
  <path
     style="fill:#89e051;fill-opacity:1;stroke-width:1.33333337"
     d="M 54.440756,0 C 35.960433,0 23.441671,4.557562 14.421225,14.572265 c -2.857711,3.172694 -5.142297,9.15067 -3.951172,10.341797 0.330423,0.330422 5.511568,-3.039946 11.513672,-7.490234 6.002103,-4.450288 11.419659,-8.091797 12.037109,-8.091797 0.617449,0 1.938143,-0.749349 2.935547,-1.666016 4.547526,-4.179411 10.376953,-6.23858 10.376953,-3.666016 0,0.733334 -0.875516,1.332032 -1.945312,1.332032 -1.069796,0 -8.569145,4.26494 -16.666016,9.476562 -18.395327,11.840318 -19.178708,14.157784 -5.054688,14.949219 15.015829,0.841405 26.500042,-0.0385 32.332032,-2.474609 12.268907,-5.124906 16.667967,-7.426773 16.667967,-8.728516 0,-0.75828 0.50802,-1.064622 1.13086,-0.679688 1.36332,0.84258 6.98585,-5.312976 5.87109,-6.427734 -0.42945,-0.429449 0.26308,-0.78125 1.53907,-0.78125 1.49181,0 2.16004,-0.833595 1.87109,-2.333984 -0.24715,-1.283334 -1.04038,-2.273942 -1.76367,-2.201172 -0.72329,0.07277 -2.03034,-0.827228 -2.90235,-2 -1.27291,-1.711959 -2.08672,-1.825335 -4.13281,-0.578125 -2.08624,1.271684 -2.9446,1.090305 -4.73437,-1 C 67.671457,0.363161 65.518237,0 54.440756,0 Z m 8.181641,1.943359 c 0.44705,-0.03147 0.19387,0.406685 -0.544922,1.296875 -0.95544,1.151231 -2.564009,2.091797 -3.574219,2.091797 -1.01021,0 -1.835938,0.536531 -1.835938,1.191406 10e-7,0.654875 -0.870933,1.523863 -1.933593,1.931641 -4.117891,1.580184 -0.430158,-2.772666 4.232422,-4.996094 2.06206,-0.983328 3.209202,-1.48416 3.65625,-1.515625 z m 12.91797,7.388672 c 2.78886,0 2.80135,0.07968 0.45898,2.667968 -2.8847,3.187559 -5.27526,3.50837 -4.14258,0.556641 0.44513,-1.159979 0.81055,-2.359327 0.81055,-2.666015 0,-0.30669 1.29272,-0.558594 2.87305,-0.558594 z m -14.128908,2.667968 c 0.32338,10e-7 0.587891,0.598698 0.587891,1.332032 0,0.733333 -0.6355,1.333984 -1.41211,1.333984 -0.77661,0 -1.04111,-0.600651 -0.58789,-1.333984 0.45323,-0.733334 1.088719,-1.332032 1.412109,-1.332032 z m -15.169922,0.666016 -0.455078,2.666016 c -0.408273,2.397705 0.388028,2.707534 7.880859,3.064453 4.583331,0.218326 8.332032,0.85041 8.332032,1.404297 0,1.410608 -9.491796,1.127225 -15.72461,-0.46875 -5.174994,-1.325108 -5.189652,-1.349784 -2.61914,-4 z m 9.837891,0.666016 c 1.14328,0 1.707126,0.600651 1.253906,1.333984 -0.45323,0.733333 -1.388075,1.333984 -2.078125,1.333984 -0.69006,0 -1.255859,-0.600651 -1.255859,-1.333984 0,-0.733333 0.936798,-1.333984 2.080078,-1.333984 z m -22.972656,6.08789 c 0.814264,0.03179 1.701719,0.272732 2.347656,0.681641 1.367557,0.865732 0.881406,1.196088 -1.78711,1.210937 -3.981643,0.02217 -4.700363,-0.632898 -1.880859,-1.714843 0.368688,-0.141479 0.831754,-0.196807 1.320313,-0.177735 z m 6.9375,2.064454 c 0.679813,0 2.122355,0.394092 3.955078,1.18164 1.75832,0.755576 1.986708,1.17042 0.667968,1.21875 -1.1,0.04031 -2.899999,-0.507875 -4,-1.21875 -1.218643,-0.787548 -1.30286,-1.18164 -0.623046,-1.18164 z M 23.128256,22.83789 c 0.361485,-0.0029 0.722193,0.02943 1.0625,0.101563 1.833091,0.388551 1.497643,0.723998 -1.292969,1.292968 -2.433089,0.496078 -3.309458,0.311412 -2.474609,-0.523437 0.533281,-0.533279 1.620622,-0.862262 2.705078,-0.871094 z"
     id="path15839"
     inkscape:connector-curvature="0" />
  <path
     style="fill:#5fbe22;fill-opacity:1;stroke-width:1.33333337"
     d="m 18.615232,31.919488 c -4.99292,0.05334 -8.61675,1.024722 -8.56445,2.695313 0.0276,0.883438 4.37811,7.85227 9.66797,15.486328 8.26579,11.928772 10.367,14.124838 14.94922,15.615234 4.83411,1.572325 4.91212,1.662795 0.83203,0.976563 -3.56197,-0.599086 -4.27286,-0.379325 -3.40625,1.052734 1.98939,3.28743 19.7015,27.106616 21.50781,28.923826 2.89463,2.91211 8.398442,10.395754 8.398442,11.419924 0,1.85674 -19.110772,-21.737544 -27.630862,-34.113285 -2.6837,-3.898171 -6.58112,-9.488538 -8.66016,-12.421871 -2.07904,-2.933334 -6.56633,-9.532683 -9.9707,-14.666016 -3.40437,-5.133334 -6.838106,-9.77736 -7.63086,-10.320312 -0.888675,-0.608648 -2.718278,1.692067 -4.773438,6 C 0.37312,48.774359 0,51.27763 0,64.980035 c 0,13.70908 0.359712,16.127421 3.232422,21.712891 3.527354,6.85829 12.6393,16.001994 18.43555,18.500004 2.01534,0.86855 6.15181,3.24082 9.1914,5.27148 5.28263,3.52916 9.84241,4.99742 23.14063,7.45312 6.87971,1.27043 14.505275,-0.29954 16.818365,-3.46289 3.19895,-4.37482 5.05701,-21.384024 3.61133,-33.052734 -3.21466,-25.946843 -19.776165,-43.480532 -45.847665,-48.539058 -3.48341,-0.675869 -6.97105,-0.975362 -9.9668,-0.94336 z m -2.51367,5.433594 c 0.21323,-0.01863 0.85157,0.112949 1.89844,0.365234 1.83333,0.441819 3.90294,1.335417 4.59961,1.986328 1.72821,1.614701 0.77886,1.406523 -3.9336,-0.863281 -2.09373,-1.008465 -2.91983,-1.457232 -2.56445,-1.488281 z m 10.15234,3.628906 c 1.24006,-0.05154 2.62686,0.506901 3.08008,1.240234 0.94755,1.533173 0.89992,1.533173 -2.66797,0 -2.17387,-0.934146 -2.2501,-1.163834 -0.41211,-1.240234 z M 6.572266,41.948785 c 0.103481,-0.05581 0.22479,0.144375 0.351562,0.630859 0.338062,1.297289 0.316402,3.097289 -0.04883,4 -0.365231,0.90271 -0.642404,-0.157422 -0.615234,-2.357422 0.01698,-1.375 0.140031,-2.180418 0.3125,-2.273437 z m 25.658206,2.261719 c 0.51092,0.01864 1.293,0.132748 2.3457,0.333984 1.78407,0.341046 3.56607,1.458493 3.95898,2.482422 0.85519,2.228577 1.02538,2.239753 -3.53515,-0.234375 -3.39063,-1.839446 -4.30231,-2.637947 -2.76953,-2.582031 z m 10.6582,5.267578 c 0.24326,-0.01245 0.59605,0.06363 1.04102,0.234375 1.13808,0.436726 2.07031,1.030151 2.07031,1.318359 0,1.079884 -2.54121,0.472017 -3.32422,-0.794922 -0.29195,-0.472383 -0.19254,-0.73706 0.21289,-0.757812 z m -37.599609,4.02539 c 0.08039,0.02995 0.167294,0.155599 0.259765,0.384766 0.369883,0.916666 0.369883,2.417317 0,3.333984 -0.369884,0.916668 -0.671875,0.165366 -0.671875,-1.667968 0,-1.375 0.17095,-2.140625 0.41211,-2.050782 z m 13.197269,2.511719 c 0.12126,0.01836 0.26421,0.224181 0.42382,0.623047 0.38516,0.9625 0.33759,2.111632 -0.10546,2.554688 -0.44306,0.443054 -0.75711,-0.344446 -0.69922,-1.75 0.04,-0.970787 0.17876,-1.458336 0.38086,-1.427735 z m -1.33399,5.333985 c 0.12126,0.01836 0.26617,0.22418 0.42578,0.623046 0.38516,0.962501 0.33759,2.111632 -0.10547,2.554688 -0.44305,0.443055 -0.75906,-0.344445 -0.70117,-1.75 0.04,-0.970786 0.17876,-1.458335 0.38086,-1.427734 z m -1.26367,5.542968 c 0.17363,-0.05213 0.33391,0.334742 0.50391,1.136719 0.28853,1.361228 -0.0585,3.056537 -0.76954,3.767578 -0.83484,0.834849 -1.01951,-0.04151 -0.52343,-2.474609 0.32004,-1.569719 0.56582,-2.36266 0.78906,-2.429688 z M 5.238281,67.282769 c 0.103481,-0.05581 0.224791,0.144376 0.351563,0.63086 0.338063,1.297289 0.316403,3.097289 -0.04883,4 -0.36523,0.902709 -0.642405,-0.159375 -0.615235,-2.359375 0.01698,-1.375 0.140032,-2.178465 0.3125,-2.271485 z m 38.349611,0.404297 c 1.97339,-0.0731 3.95888,0.467839 4.41211,1.201172 0.93672,1.515656 0.0666,1.515656 -4.66602,0 l -3.33398,-1.068359 z m 7.07812,2.574219 c 0.73333,0 2.23399,0.582094 3.33399,1.292969 1.1,0.710874 1.39934,1.292968 0.66601,1.292968 -0.73334,0 -2.23203,-0.582094 -3.33203,-1.292968 -1.1,-0.710875 -1.4013,-1.292969 -0.66797,-1.292969 z"
     id="path15843"
     inkscape:connector-curvature="0" />
</svg>
